<?xml version="1.0" encoding="iso-8859-1"?>
<!-- Uploaded to: SVG Repo, www.svgrepo.com, Generator: SVG Repo Mixer Tools -->
<!DOCTYPE svg PUBLIC "-//W3C//DTD SVG 1.1//EN" "http://www.w3.org/Graphics/SVG/1.1/DTD/svg11.dtd">
<svg fill="#000000" height="800px" width="800px" version="1.1" id="Capa_1" xmlns="http://www.w3.org/2000/svg" xmlns:xlink="http://www.w3.org/1999/xlink" 
	 viewBox="0 0 448.079 448.079" xml:space="preserve">
<path d="M445.535,11.211c-3.322-3.321-8.631-3.401-11.855-0.177l-112.411,116.01c-29.304-5.912-62.511-9.059-97.03-9.059
	c-24.065,0-47.487,1.533-69.398,4.462L13.253,18.984c-3.724-2.633-8.942-1.655-11.654,2.18c-2.712,3.838-1.891,9.082,1.832,11.715
	l134.773,92.113c-19.453,3.363-37.426,7.885-53.219,13.476c-39.751,14.072-61.642,33.776-61.642,55.482v169.498
	c0,21.706,21.892,41.41,61.642,55.482c37.311,13.208,86.766,20.483,139.254,20.483c52.488,0,101.943-7.274,139.254-20.483
	c39.75-14.072,61.642-33.776,61.642-55.482V193.95c0-21.706-21.892-41.41-61.642-55.482c-8.792-3.112-18.265-5.891-28.286-8.327
	L445.712,23.066C448.936,19.842,448.857,14.534,445.535,11.211z M224.239,132.985c29.858,0,58.626,2.408,84.531,6.958l-8.431,8.7
	c-23.851-4.366-50.237-6.606-76.1-6.606c-13.383,0-26.906,0.602-40.147,1.785l-11.433-8.354
	C189.224,133.833,206.539,132.985,224.239,132.985z M239.487,217.258c3.678,3.679,10.045,3.275,14.22-0.899
	c2.91-2.911,3.981-6.884,3.122-10.271l43.602-42.248c11.693,2.261,22.577,5.048,32.336,8.351
	c25.582,8.656,40.854,20.032,40.854,30.432c0,10.4-15.272,21.776-40.854,30.432c-28.877,9.771-67.419,15.152-108.528,15.152
	c-41.109,0-79.652-5.381-108.529-15.152c-25.582-8.656-40.854-20.032-40.854-30.432c0-10.399,15.272-21.776,40.854-30.432
	c20.005-6.769,44.653-11.427,71.575-13.652l33.283,22.748c-0.274,3.483,1.454,7.217,4.815,9.594
	c4.822,3.407,11.165,2.727,14.167-1.52c3.003-4.248,1.528-10.454-3.294-13.862c-3.361-2.376-7.458-2.76-10.651-1.339l-22.742-16.618
	c7.023-0.327,14.156-0.502,21.376-0.502c22.306,0,43.84,1.597,63.501,4.608l-37.083,38.269c-3.388-0.86-7.361,0.212-10.271,3.122
	C236.212,207.213,235.808,213.579,239.487,217.258z M215.753,269.846v154.498c-26.371-0.405-51.743-2.696-74.87-6.686V263.364
	C164.173,267.236,189.515,269.452,215.753,269.846z M230.753,269.872c26.2-0.302,51.538-2.42,74.87-6.187v154.313
	c-23.172,3.88-48.543,6.062-74.87,6.372V269.872z M89.991,152.608c19.137-6.775,41.696-11.918,66.326-15.236l11.942,8.162
	c-58.913,7.516-108.402,27.008-108.402,57.088c0,10.137,5.632,19.068,15.339,26.748c-23.34-10.559-36.853-23.344-36.853-35.419
	C38.343,179.512,57.65,164.057,89.991,152.608z M38.343,363.448V223.7c3.399,3.169,7.35,6.234,11.85,9.174v150.827
	C42.506,377.066,38.343,370.148,38.343,363.448z M65.178,393.869c0.004-0.1,0.015-0.199,0.015-0.3V241.258
	c5.999,2.894,12.599,5.627,19.792,8.173c12.401,4.39,26.149,8.12,40.898,11.149v154.184c-12.911-2.77-24.962-6.105-35.893-9.974
	C80.554,401.45,72.239,397.767,65.178,393.869z M358.487,404.79c-11.485,4.066-24.207,7.541-37.864,10.39V260.984
	c15.499-3.099,29.917-6.967,42.87-11.553c6.413-2.271,12.354-4.689,17.82-7.237v152.748
	C374.693,398.443,367.053,401.758,358.487,404.79z M396.313,385.338V234.127c5.32-3.321,9.936-6.805,13.822-10.427v139.749
	C410.135,370.7,405.261,378.209,396.313,385.338z M358.487,152.608c32.34,11.449,51.648,26.904,51.648,41.342
	c0,12.075-13.513,24.86-36.853,35.419c9.707-7.679,15.339-16.61,15.339-26.748c0-24.203-32.044-41.549-75.253-51.319l8.998-8.718
	C335.364,145.364,347.492,148.716,358.487,152.608z"/>
</svg>